<svg width="84" height="84" viewBox="0 0 84 84" fill="none" xmlns="http://www.w3.org/2000/svg">
<circle cx="42" cy="42" r="42" fill="#6A3D96"/>
<path d="M29.1465 73.9873L27.8986 76.6163C27.5671 77.3146 27.0521 77.498 26.3538 77.1665L24.2862 76.185L24.0919 75.7991L24.2251 75.5184L26.6077 76.6494C26.918 76.7968 27.1469 76.7152 27.2942 76.4049L28.6007 73.6526C28.748 73.3423 28.6665 73.1134 28.3561 72.9661L26.4118 72.0431L25.6058 73.741L26.7697 74.2935L26.5227 74.8138L24.7837 73.9883L26.0837 71.2498L28.5963 72.4425C29.2946 72.774 29.478 73.2889 29.1465 73.9873Z" fill="#F1F1F1"/>
<path d="M22.6234 69.0109C23.235 69.467 23.3127 70.0008 22.8566 70.6124C22.4005 71.2239 21.8667 71.3017 21.2551 70.8456L20.1434 70.0165L19.79 70.4903C19.5786 70.7739 19.6146 71.0213 19.8981 71.2328L21.1982 72.2023L21.017 72.4453L20.638 72.4463L19.581 71.658C18.9734 71.2049 18.8962 70.6747 19.3493 70.0671L21.0256 67.8193L22.6234 69.0109ZM22.4204 70.1831C22.6319 69.8996 22.5958 69.6521 22.3123 69.4407L21.1945 68.607L20.4379 69.6216L21.5557 70.4552C21.8392 70.6667 22.0867 70.6306 22.2981 70.3471L22.4204 70.1831Z" fill="#F1F1F1"/>
<path d="M15.4562 69.059L14.9514 69.5616L14.4809 69.0891L14.9857 68.5864L15.4562 69.059ZM18.7484 65.7383L15.9558 68.5188L15.528 68.0892L18.3206 65.3086L18.7484 65.7383Z" fill="#F1F1F1"/>
<path d="M16.208 62.9999L13.0255 65.3243L11.774 63.6107C11.327 62.9986 11.4095 62.4692 12.0215 62.0222L14.2859 60.3683L14.6435 60.8579L12.3179 62.5565C12.0323 62.7651 11.9938 63.0122 12.2024 63.2978L13.0963 64.5218L15.8504 62.5103L16.208 62.9999Z" fill="#F1F1F1"/>
<path d="M10.9683 54.4938L10.6823 54.5941L10.103 52.9421C9.98761 52.6131 9.76306 52.5072 9.42931 52.6242C9.0908 52.7429 8.94607 52.9409 8.99511 53.2182L9.15051 54.1194C9.26105 54.7552 9.03979 55.1701 8.48673 55.364C7.80494 55.6031 7.33866 55.3651 7.08787 54.6499L6.66907 53.4556L6.7833 53.0943L7.06937 52.994L7.591 54.4815C7.70803 54.8153 7.93341 54.9236 8.26716 54.8066C8.56752 54.7013 8.69223 54.4996 8.64126 54.2016L8.48586 53.3004C8.3739 52.6757 8.61114 52.2606 9.19757 52.055C9.88413 51.8142 10.3545 52.0562 10.6086 52.7809L11.0826 54.1325L10.9683 54.4938Z" fill="#F1F1F1"/>
<path d="M9.50279 48.9006L3.96329 49.7753L3.86872 49.1765L5.5156 48.9164L5.27917 47.4192C5.16096 46.6707 5.47614 46.2373 6.22473 46.1191L8.99447 45.6817L9.08905 46.2805L6.24444 46.7297C5.8951 46.7849 5.74801 46.9872 5.80318 47.3365L6.03961 48.8337L9.40822 48.3017L9.50279 48.9006Z" fill="#F1F1F1"/>
<path d="M8.83479 41.6367C8.81216 42.3992 8.41956 42.7692 7.65699 42.7466C6.89441 42.7239 6.52444 42.3313 6.54707 41.5688L6.58821 40.1825L5.99734 40.165C5.64383 40.1545 5.46183 40.326 5.45134 40.6795L5.40323 42.3006L5.10022 42.2916L4.88195 41.9819L4.92107 40.6638C4.94355 39.9062 5.33355 39.5387 6.09108 39.5612L8.89391 39.6444L8.83479 41.6367ZM7.7583 42.143C8.11181 42.1535 8.29381 41.982 8.3043 41.6285L8.34566 40.2347L7.0806 40.1971L7.03924 41.591C7.02874 41.9445 7.20025 42.1265 7.55377 42.137L7.7583 42.143Z" fill="#F1F1F1"/>
<path d="M9.27452 36.6193L5.85336 35.9494C5.58985 35.7176 5.50421 35.3662 5.59645 34.8952L5.74209 34.1514L6.02347 33.8976L6.32096 33.9559L6.13309 34.9153C6.09231 35.1235 6.11971 35.2859 6.2153 35.4025L9.39104 36.0244L9.27452 36.6193Z" fill="#F1F1F1"/>
<path d="M11.8218 32.3942L6.72023 30.4581L7.47318 28.4742C7.74209 27.7656 8.23082 27.5458 8.93936 27.8147L10.4982 28.4063C11.2067 28.6752 11.4265 29.164 11.1576 29.8725L10.6198 31.2896L12.0369 31.8274L11.8218 32.3942ZM10.1238 31.1014L10.6616 29.6843C10.7871 29.3536 10.6845 29.1255 10.3539 29L8.65338 28.3547C8.32273 28.2292 8.09466 28.3318 7.96916 28.6624L7.43134 30.0795L10.1238 31.1014Z" fill="#F1F1F1"/>
<path d="M11.9365 25.4644L10.5191 24.5863C9.87491 24.1872 9.75236 23.6655 10.1515 23.0213L10.6704 22.1838C11.0695 21.5395 11.5912 21.417 12.2354 21.8161L13.1438 22.3789L11.7468 24.6337L12.3202 24.9889C12.6208 25.1752 12.8643 25.118 13.0506 24.8174L14.0883 23.1423L14.346 23.302L14.3796 23.6794L13.5015 25.0968C13.1024 25.741 12.5807 25.8635 11.9365 25.4644ZM11.3281 24.3743L12.4057 22.6348L11.8517 22.2916C11.551 22.1053 11.3076 22.1625 11.1213 22.4631L10.6025 23.3007C10.4162 23.6013 10.4734 23.8447 10.774 24.031L11.3281 24.3743Z" fill="#F1F1F1"/>
<path d="M16.5406 20.7927L13.929 18.4835C13.819 18.1502 13.923 17.8038 14.2409 17.4442L14.7429 16.8765L15.1141 16.8L15.3412 17.0008L14.6936 17.7332C14.553 17.8922 14.4945 18.0461 14.5179 18.195L16.9422 20.3385L16.5406 20.7927Z" fill="#F1F1F1"/>
<path d="M22.8853 14.9442L20.4084 11.2215C19.9886 10.5906 20.0942 10.0652 20.7251 9.64537L21.293 9.26754L21.6713 9.2889L21.8393 9.54129L21.019 10.087C20.7246 10.283 20.6753 10.5281 20.8712 10.8226L21.2071 11.3273L22.4059 10.5297L22.6997 10.9714L21.5009 11.769L23.3901 14.6083L22.8853 14.9442Z" fill="#F1F1F1"/>
<path d="M26.5228 11.3989L25.8464 9.87497C25.5389 9.18228 25.7316 8.68221 26.4242 8.37475L27.394 7.9443C28.0867 7.63684 28.5868 7.82945 28.8942 8.52214L29.5706 10.0461C29.8781 10.7387 29.6855 11.2388 28.9928 11.5463L28.023 11.9767C27.3303 12.2842 26.8303 12.0916 26.5228 11.3989ZM27.1077 11.2222C27.2512 11.5454 27.4846 11.6353 27.8078 11.4918L28.7776 11.0614C29.1008 10.9179 29.1907 10.6845 29.0472 10.3613L28.3093 8.69884C28.1658 8.37559 27.9325 8.2857 27.6092 8.42918L26.6395 8.85963C26.3162 9.00311 26.2263 9.23648 26.3698 9.55973L27.1077 11.2222Z" fill="#F1F1F1"/>
<path d="M32.6574 9.01383L32.2749 7.391C32.1011 6.65335 32.383 6.19761 33.1206 6.02376L34.5664 5.68302L34.9136 5.83478L34.9832 6.12984L33.2423 6.54011C32.8981 6.62124 32.7665 6.83392 32.8477 7.17816L33.2649 8.94852C33.346 9.29275 33.5587 9.42431 33.9029 9.34318L35.6438 8.9329L35.7133 9.22796L35.4704 9.5188L34.0246 9.85953C33.287 10.0334 32.8312 9.75148 32.6574 9.01383Z" fill="#F1F1F1"/>
<path d="M38.7841 7.85711L38.6575 5.0559L39.2632 5.02853L39.3932 7.90545C39.4092 8.25876 39.5938 8.42743 39.9471 8.41146L41.4613 8.34303L41.3073 4.93615L41.913 4.90878L42.0909 8.84562L39.9711 8.94142C39.214 8.97563 38.8183 8.6142 38.7841 7.85711Z" fill="#F1F1F1"/>
<path d="M45.1173 8.76663L45.1583 8.46626L46.8929 8.70272C47.2383 8.74981 47.4349 8.59814 47.4826 8.24771C47.5311 7.89228 47.4207 7.67327 47.1515 7.59068L46.2784 7.31869C45.662 7.12758 45.3934 6.74167 45.4725 6.16096C45.5701 5.44509 45.9943 5.13834 46.7453 5.2407L47.9993 5.41165L48.2689 5.67787L48.228 5.97823L46.6661 5.76532C46.3157 5.71755 46.1166 5.86887 46.0688 6.2193C46.0258 6.53468 46.1486 6.73754 46.4371 6.82786L47.3102 7.09986C47.9173 7.2846 48.1789 7.68484 48.095 8.30059C47.9967 9.02147 47.5671 9.33004 46.8062 9.22631L45.387 9.03285L45.1173 8.76663Z" fill="#F1F1F1"/>
<path d="M54.7397 10.1384L55.4332 8.62222C55.7485 7.93305 56.2507 7.7461 56.9399 8.06136L57.9047 8.50273C58.5939 8.81799 58.7808 9.3202 58.4656 10.0094L57.772 11.5256C57.4567 12.2147 56.9545 12.4017 56.2654 12.0864L55.3005 11.6451C54.6113 11.3298 54.4244 10.8276 54.7397 10.1384ZM55.2595 10.4595C55.1123 10.7811 55.1996 11.0155 55.5212 11.1626L56.486 11.604C56.8077 11.7511 57.042 11.6639 57.1891 11.3423L57.9458 9.68825C58.0929 9.36664 58.0057 9.13227 57.684 8.98515L56.7192 8.54378C56.3976 8.39666 56.1632 8.4839 56.0161 8.80552L55.2595 10.4595Z" fill="#F1F1F1"/>
<path d="M59.9866 14.1094L62.2794 10.9043L64.0053 12.1389C64.6217 12.5798 64.7094 13.1085 64.2685 13.7249L62.637 16.0055L62.1439 15.6527L63.8195 13.3105C64.0252 13.0228 63.9843 12.7761 63.6966 12.5704L62.4639 11.6885L60.4797 14.4622L59.9866 14.1094Z" fill="#F1F1F1"/>
<path d="M70.3227 18.1105L70.4485 18.1005L70.7652 18.5166L68.7493 21.4988L68.8411 21.6194L72.2525 20.4704L72.5692 20.8865L72.5261 21.005L67.1487 22.7744L66.8319 22.3583L66.8751 22.2398L68.3042 21.79L68.0747 21.4885L70.3227 18.1105Z" fill="#F1F1F1"/>
<path d="M71.9513 25.1566L73.4421 24.4099C74.1197 24.0705 74.6282 24.2397 74.9676 24.9173L75.4427 25.8659C75.7821 26.5435 75.613 27.052 74.9354 27.3914L73.4447 28.1381C72.7671 28.4775 72.2585 28.3084 71.9191 27.6308L71.444 26.6821C71.1046 26.0045 71.2737 25.496 71.9513 25.1566ZM72.1551 25.7326C71.8389 25.891 71.7599 26.1283 71.9183 26.4445L72.3935 27.3932C72.5519 27.7094 72.7892 27.7883 73.1054 27.63L74.7317 26.8154C75.0479 26.657 75.1268 26.4197 74.9684 26.1035L74.4932 25.1548C74.3349 24.8386 74.0976 24.7597 73.7813 24.9181L72.1551 25.7326Z" fill="#F1F1F1"/>
<path d="M74.6375 31.204L77.3381 30.4496L77.5013 31.0335L74.7276 31.8083C74.387 31.9035 74.2642 32.1214 74.3594 32.462L74.7672 33.9218L78.0518 33.0043L78.2149 33.5882L74.4194 34.6485L73.8485 32.6047C73.6446 31.8748 73.9076 31.4079 74.6375 31.204Z" fill="#F1F1F1"/>
<path d="M74.9506 37.7266L78.4183 37.368C78.738 37.5127 78.9226 37.8238 78.9719 38.3012L79.0499 39.055L78.8549 39.38L78.5534 39.4111L78.4528 38.4387C78.431 38.2276 78.3574 38.0803 78.2319 37.9968L75.013 38.3297L74.9506 37.7266Z" fill="#F1F1F1"/>
<path d="M76.1101 46.4893L77.7523 46.7772C78.4988 46.9081 78.8066 47.3468 78.6757 48.0932L78.4192 49.5563L78.1429 49.8157L77.8443 49.7633L78.1532 48.0016C78.2143 47.6533 78.0706 47.4486 77.7223 47.3875L75.9307 47.0734C75.5824 47.0123 75.3777 47.156 75.3166 47.5043L75.0077 49.266L74.7091 49.2136L74.5375 48.8758L74.7941 47.4127C74.9249 46.6662 75.3636 46.3584 76.1101 46.4893Z" fill="#F1F1F1"/>
<path d="M73.3521 53.0771C73.6167 52.3615 74.1068 52.136 74.8224 52.4006C75.5379 52.6653 75.7634 53.1553 75.4988 53.8709L75.0177 55.1717L75.5722 55.3767C75.9039 55.4994 76.1311 55.3948 76.2537 55.0631L76.8162 53.542L77.1006 53.6471L77.2087 54.0103L76.7513 55.2471C76.4884 55.9579 76.0016 56.1819 75.2908 55.9191L72.6608 54.9465L73.3521 53.0771ZM74.5339 52.9404C74.2022 52.8177 73.975 52.9222 73.8523 53.2539L73.3686 54.5618L74.5557 55.0008L75.0394 53.6929C75.162 53.3612 75.0575 53.134 74.7258 53.0114L74.5339 52.9404Z" fill="#F1F1F1"/>
<path d="M71.3355 57.6927L74.3644 59.4186C74.5402 59.7223 74.5094 60.0826 74.2717 60.4997L73.8965 61.1581L73.5489 61.309L73.2855 61.1589L73.7695 60.3095C73.8746 60.1251 73.9004 59.9624 73.847 59.8215L71.0353 58.2194L71.3355 57.6927Z" fill="#F1F1F1"/>
<path d="M69.6627 62.5204L70.9515 63.5781C71.5373 64.0589 71.5898 64.5922 71.109 65.1781L70.484 65.9396C70.0032 66.5254 69.4699 66.5779 68.8841 66.0971L68.0581 65.4192L69.7409 63.3688L69.2195 62.9409C68.9461 62.7165 68.6973 62.741 68.4729 63.0144L67.2228 64.5375L66.9885 64.3452L67.005 63.9666L68.0628 62.6779C68.5436 62.0921 69.0769 62.0396 69.6627 62.5204ZM70.1217 63.6814L68.8235 65.2631L69.3273 65.6765C69.6007 65.9009 69.8495 65.8764 70.0739 65.603L70.699 64.8415C70.9233 64.5681 70.8988 64.3192 70.6255 64.0949L70.1217 63.6814Z" fill="#F1F1F1"/>
<path d="M65.2555 67.4164L66.3188 68.7006C66.8021 69.2844 66.7519 69.8179 66.1682 70.3012L65.4094 70.9296C64.8256 71.4129 64.2921 71.3627 63.8088 70.779L63.1273 69.9559L65.1703 68.2643L64.7402 67.7447C64.5146 67.4723 64.2656 67.4489 63.9932 67.6745L62.4755 68.9311L62.2822 68.6976L62.3707 68.3292L63.6549 67.2659C64.2386 66.7825 64.7721 66.8327 65.2555 67.4164ZM65.4845 68.6437L63.9084 69.9487L64.3241 70.4507C64.5497 70.7231 64.7986 70.7465 65.071 70.521L65.8299 69.8926C66.1023 69.6671 66.1257 69.4181 65.9002 69.1457L65.4845 68.6437Z" fill="#F1F1F1"/>
<path d="M59.402 70.3761L61.141 73.3976C61.1389 73.7485 60.9299 74.0437 60.5139 74.2831L59.8571 74.6612L59.4809 74.6153L59.3297 74.3526L60.177 73.8649C60.3609 73.7591 60.4655 73.6319 60.4907 73.4833L58.8765 70.6786L59.402 70.3761ZM57.31 71.5802L57.7182 72.2896L57.0811 72.6563L56.6728 71.9469L57.31 71.5802Z" fill="#F1F1F1"/>
<path d="M40.4064 72.4053C40.4312 71.921 40.4921 71.4392 40.5886 70.9639C40.5886 70.9639 40.5886 70.8977 40.5886 70.8894C40.5886 70.8811 40.6548 70.8894 40.6713 70.9556C40.87 71.2556 41.1004 71.5334 41.3584 71.784C41.9504 72.3138 42.5814 72.7984 43.2459 73.2336C43.8834 73.681 44.5291 74.12 45.1334 74.6087C45.6267 75.0087 45.9589 75.5735 46.0689 76.1992C46.1848 76.8205 46.2593 77.4417 46.3255 78.063L46.3752 78.5435C46.3839 78.5539 46.3887 78.5671 46.3887 78.5807C46.3887 78.5944 46.3839 78.6076 46.3752 78.618C46.3752 78.618 46.3338 78.618 46.3255 78.618C45.7284 77.9415 45.0435 77.3481 44.289 76.8536C43.4612 76.2406 42.6333 75.669 41.8552 75.0229C41.4583 74.7257 41.1165 74.3612 40.8452 73.946C40.56 73.4826 40.4082 72.9495 40.4064 72.4053Z" fill="white"/>
<path d="M40.0588 75.2051C40.1033 75.2446 40.135 75.2965 40.1498 75.3542C40.383 76.0542 40.7972 76.6801 41.3502 77.1683C41.9499 77.6884 42.5986 78.1489 43.2873 78.5434L43.3784 78.6097C43.4198 78.6097 43.3784 78.6676 43.3784 78.6759H39.8353C39.62 78.6759 39.62 78.6759 39.6448 78.4688C39.769 77.5079 39.8932 76.5553 40.0091 75.5944C40.0257 75.4784 40.0422 75.3542 40.0588 75.2051Z" fill="white"/>
<path d="M45.7295 73.2338C45.6715 73.2338 45.6715 73.1676 45.6549 73.1344C45.2598 72.2342 44.662 71.4375 43.9082 70.8067C43.4111 70.3697 42.8535 70.007 42.2525 69.7298C42.2525 69.7298 42.1697 69.7298 42.1697 69.6636C42.1697 69.5973 42.236 69.6056 42.2774 69.6056C42.7568 69.5683 43.2384 69.5683 43.7178 69.6056C44.1968 69.6453 44.6709 69.7313 45.1334 69.8624C45.1978 69.8705 45.2569 69.902 45.2997 69.9508C45.3424 69.9997 45.3657 70.0625 45.3652 70.1275C45.4563 70.9558 45.5639 71.7842 45.6715 72.5546C45.6715 72.7368 45.7129 72.9191 45.7377 73.1013C45.7509 73.145 45.748 73.1921 45.7295 73.2338Z" fill="white"/>
<path d="M41.4412 69.0422V68.744C41.4412 68.6612 41.4992 68.628 41.5654 68.6115C42.247 68.4601 42.9467 68.4071 43.6433 68.4541C43.8668 68.4541 44.082 68.5121 44.3056 68.5535C44.5291 68.5949 44.4877 68.6115 44.4877 68.744C44.501 68.8227 44.5204 68.9002 44.5456 68.976C44.5456 69.0754 44.5456 69.1002 44.4297 69.0754C43.9396 68.9761 43.4385 68.9427 42.9396 68.976C42.4827 68.9856 42.0278 69.0411 41.582 69.1416C41.5075 69.1416 41.4247 69.1665 41.4412 69.0422Z" fill="white"/>
<path d="M43.0887 67.8739C43.2949 67.8487 43.5034 67.8487 43.7096 67.8739C43.8503 67.8739 43.8834 67.9816 43.8503 68.1721C43.8172 68.3626 43.7261 68.2632 43.6516 68.2549C43.1967 68.2024 42.7366 68.2163 42.2857 68.2964C42.1698 68.2964 42.1367 68.2964 42.1449 68.1721C42.1449 67.9153 42.1449 67.8988 42.4181 67.8739C42.6412 67.8533 42.8656 67.8533 43.0887 67.8739Z" fill="white"/>
<path d="M42.8237 67.3193V66.9963C42.8237 66.8969 42.8237 66.8554 42.9645 66.8472C43.1052 66.8389 43.2045 66.8472 43.2045 67.0791C43.2045 67.311 43.2045 67.4684 43.2045 67.659C43.2045 67.8495 43.1135 67.7998 43.0141 67.7915C42.9148 67.7832 42.8154 67.7915 42.8237 67.659V67.3193Z" fill="white"/>
</svg>
