<svg width="143" height="32" viewBox="0 0 143 32" fill="none" xmlns="http://www.w3.org/2000/svg">
<path d="M10.2823 32H0L1.18937 22.6402C2.41711 27.2826 6.75255 29.8532 10.2823 32Z" fill="#F1F1F1"/>
<path d="M4.11625 20.2655C1.33446 17.384 2.3787 13.1253 2.64726 10.9001C4.98764 14.8135 10.6486 17.4933 15.0014 21.144C17.3801 23.1391 17.4185 24.2133 18.2242 31.3879C16.536 28.472 7.6605 23.9367 4.11625 20.2655Z" fill="#F1F1F1"/>
<path d="M16.5359 17.5375C14.8862 12.8951 10.3973 9.13515 6.71406 7.60049C8.24873 7.37029 12.1314 7.20147 15.3849 8.36782L16.5359 17.5375Z" fill="#F1F1F1"/>
<path d="M5.26284 5.20384L5.14697 6.61302C9.0402 5.5662 12.3953 6.1265 13.6055 6.56267L13.4123 5.05284C10.1989 4.16707 6.65328 4.83476 5.26284 5.20384Z" fill="#F1F1F1"/>
<path d="M7.15469 3.26518L7.07715 4.30616C8.53493 3.86529 10.7604 4.04081 11.6909 4.18368L11.6133 3.26518C10.2486 2.92226 8.07227 3.1223 7.15469 3.26518Z" fill="#F1F1F1"/>
<rect x="9.00714" width="0.922745" height="2.46065" fill="#F1F1F1"/>
<path d="M27.6777 31.9063C26.6697 31.9063 25.6968 31.7832 24.759 31.5371C23.833 31.2792 23.077 30.951 22.4909 30.5525L23.6338 27.9854C24.1847 28.3371 24.8176 28.6301 25.5327 28.8646C26.2594 29.0873 26.9803 29.1986 27.6953 29.1986C28.1759 29.1986 28.5627 29.1576 28.8557 29.0756C29.1488 28.9818 29.3598 28.8646 29.4887 28.7239C29.6294 28.5715 29.6997 28.3957 29.6997 28.1964C29.6997 27.9151 29.5708 27.6924 29.3129 27.5283C29.055 27.3642 28.7209 27.2294 28.3107 27.1239C27.9004 27.0184 27.4433 26.9129 26.9393 26.8074C26.447 26.7019 25.9488 26.5671 25.4448 26.403C24.9524 26.2389 24.5012 26.0279 24.0909 25.7701C23.6806 25.5005 23.3466 25.1547 23.0887 24.7327C22.8308 24.299 22.7019 23.7539 22.7019 23.0975C22.7019 22.3591 22.9012 21.6909 23.2997 21.0931C23.71 20.4953 24.3195 20.0147 25.1283 19.6514C25.9371 19.288 26.9451 19.1063 28.1524 19.1063C28.9612 19.1063 29.7524 19.2001 30.5261 19.3876C31.3114 19.5635 32.0089 19.8272 32.6184 20.1789L31.5459 22.7635C30.9598 22.447 30.3796 22.2126 29.8052 22.0602C29.2308 21.8961 28.6741 21.814 28.1349 21.814C27.6543 21.814 27.2675 21.8668 26.9744 21.9723C26.6814 22.066 26.4704 22.195 26.3415 22.3591C26.2125 22.5232 26.148 22.7107 26.148 22.9217C26.148 23.1913 26.2711 23.4082 26.5173 23.5723C26.7752 23.7246 27.1092 23.8536 27.5195 23.9591C27.9415 24.0528 28.3986 24.1525 28.8909 24.258C29.3949 24.3635 29.8931 24.4983 30.3854 24.6624C30.8894 24.8147 31.3466 25.0257 31.7568 25.2953C32.1671 25.5532 32.4953 25.899 32.7415 26.3327C32.9993 26.7547 33.1283 27.288 33.1283 27.9327C33.1283 28.6477 32.9231 29.31 32.5129 29.9195C32.1144 30.5173 31.5107 30.9979 30.7019 31.3613C29.9048 31.7246 28.8968 31.9063 27.6777 31.9063Z" fill="#F1F1F1"/>
<path d="M37.9364 24.1173H43.6507V26.7195H37.9364V24.1173ZM38.1825 28.9701H44.6177V31.6602H34.7364V19.3525H44.3891V22.0426H38.1825V28.9701Z" fill="#F1F1F1"/>
<path d="M52.7034 31.9063C51.7305 31.9063 50.8279 31.7539 49.9957 31.4492C49.1635 31.1327 48.4426 30.6873 47.8331 30.1129C47.2353 29.5386 46.7664 28.8646 46.4265 28.0909C46.0866 27.3056 45.9166 26.4441 45.9166 25.5063C45.9166 24.5686 46.0866 23.7129 46.4265 22.9393C46.7664 22.1539 47.2411 21.4741 47.8507 20.8997C48.4602 20.3254 49.1811 19.8858 50.0133 19.581C50.8573 19.2646 51.7774 19.1063 52.7737 19.1063C53.9342 19.1063 54.9715 19.2997 55.8858 19.6865C56.8001 20.0734 57.5562 20.6301 58.154 21.3569L55.9386 23.3613C55.5166 22.9041 55.0595 22.5642 54.5671 22.3415C54.0866 22.1071 53.5474 21.9898 52.9496 21.9898C52.4221 21.9898 51.9415 22.0719 51.5078 22.236C51.0741 22.4001 50.7049 22.6404 50.4001 22.9569C50.0953 23.2616 49.8551 23.6309 49.6792 24.0646C49.5151 24.4865 49.4331 24.9671 49.4331 25.5063C49.4331 26.0221 49.5151 26.4968 49.6792 26.9305C49.8551 27.3642 50.0953 27.7393 50.4001 28.0558C50.7049 28.3605 51.0682 28.6008 51.4902 28.7767C51.9239 28.9408 52.3986 29.0228 52.9144 29.0228C53.4301 29.0228 53.9342 28.9408 54.4265 28.7767C54.9188 28.6008 55.417 28.3078 55.921 27.8975L57.8726 30.3415C57.1693 30.8455 56.3547 31.2323 55.4287 31.5019C54.5027 31.7715 53.5942 31.9063 52.7034 31.9063ZM54.7957 29.8843V25.2426H57.8726V30.3415L54.7957 29.8843Z" fill="#F1F1F1"/>
<path d="M64.4051 31.9063C63.397 31.9063 62.4241 31.7832 61.4864 31.5371C60.5604 31.2792 59.8043 30.951 59.2182 30.5525L60.3611 27.9854C60.912 28.3371 61.545 28.6301 62.26 28.8646C62.9867 29.0873 63.7076 29.1986 64.4226 29.1986C64.9032 29.1986 65.29 29.1576 65.5831 29.0756C65.8761 28.9818 66.0871 28.8646 66.216 28.7239C66.3567 28.5715 66.427 28.3957 66.427 28.1964C66.427 27.9151 66.2981 27.6924 66.0402 27.5283C65.7823 27.3642 65.4483 27.2294 65.038 27.1239C64.6278 27.0184 64.1706 26.9129 63.6666 26.8074C63.1743 26.7019 62.6761 26.5671 62.1721 26.403C61.6798 26.2389 61.2285 26.0279 60.8182 25.7701C60.408 25.5005 60.0739 25.1547 59.816 24.7327C59.5582 24.299 59.4292 23.7539 59.4292 23.0975C59.4292 22.3591 59.6285 21.6909 60.027 21.0931C60.4373 20.4953 61.0468 20.0147 61.8556 19.6514C62.6644 19.288 63.6725 19.1063 64.8798 19.1063C65.6886 19.1063 66.4798 19.2001 67.2534 19.3876C68.0388 19.5635 68.7362 19.8272 69.3457 20.1789L68.2732 22.7635C67.6871 22.447 67.1069 22.2126 66.5325 22.0602C65.9582 21.8961 65.4014 21.814 64.8622 21.814C64.3816 21.814 63.9948 21.8668 63.7018 21.9723C63.4087 22.066 63.1977 22.195 63.0688 22.3591C62.9399 22.5232 62.8754 22.7107 62.8754 22.9217C62.8754 23.1913 62.9985 23.4082 63.2446 23.5723C63.5025 23.7246 63.8366 23.8536 64.2468 23.9591C64.6688 24.0528 65.1259 24.1525 65.6182 24.258C66.1223 24.3635 66.6204 24.4983 67.1128 24.6624C67.6168 24.8147 68.0739 25.0257 68.4842 25.2953C68.8944 25.5532 69.2226 25.899 69.4688 26.3327C69.7267 26.7547 69.8556 27.288 69.8556 27.9327C69.8556 28.6477 69.6505 29.31 69.2402 29.9195C68.8417 30.5173 68.238 30.9979 67.4292 31.3613C66.6322 31.7246 65.6241 31.9063 64.4051 31.9063Z" fill="#F1F1F1"/>
<path d="M69.9868 31.6602L75.4198 19.3525H78.8483L84.2989 31.6602H80.6769L76.422 21.058H77.7934L73.5384 31.6602H69.9868ZM72.9582 29.269L73.8549 26.7019H79.8681L80.7648 29.269H72.9582Z" fill="#F1F1F1"/>
<path d="M85.2858 31.6602V19.3525H88.7671V28.8997H94.6397V31.6602H85.2858Z" fill="#F1F1F1"/>
<path d="M99.2173 24.1173H104.932V26.7195H99.2173V24.1173ZM99.4634 28.9701H105.899V31.6602H96.0173V19.3525H105.67V22.0426H99.4634V28.9701Z" fill="#F1F1F1"/>
<path d="M107.83 31.6602V19.3525H113.457C114.582 19.3525 115.549 19.5342 116.358 19.8975C117.178 20.2609 117.811 20.7884 118.257 21.4799C118.702 22.1598 118.925 22.9686 118.925 23.9063C118.925 24.8323 118.702 25.6353 118.257 26.3151C117.811 26.9832 117.178 27.499 116.358 27.8624C115.549 28.214 114.582 28.3898 113.457 28.3898H109.765L111.312 26.9305V31.6602H107.83ZM115.444 31.6602L112.384 27.1767H116.094L119.171 31.6602H115.444ZM111.312 27.2997L109.765 25.6997H113.246C113.973 25.6997 114.512 25.5415 114.863 25.225C115.227 24.9085 115.408 24.469 115.408 23.9063C115.408 23.332 115.227 22.8865 114.863 22.5701C114.512 22.2536 113.973 22.0953 113.246 22.0953H109.765L111.312 20.4953V27.2997Z" fill="#F1F1F1"/>
<path d="M123.294 31.6602V22.1129H119.513V19.3525H130.538V22.1129H126.775V31.6602H123.294Z" fill="#F1F1F1"/>
<path d="M134.655 31.6602V26.4558L135.464 28.5481L129.96 19.3525H133.635L137.609 26.0162H135.481L139.472 19.3525H142.848L137.362 28.5481L138.136 26.4558V31.6602H134.655Z" fill="#F1F1F1"/>
</svg>
