<svg width="83" height="80" viewBox="0 0 83 80" fill="none" xmlns="http://www.w3.org/2000/svg">
<g clip-path="url(#clip0_737_5412)">
<path d="M28.6077 38.7152C28.7048 36.8195 28.9434 34.9338 29.3216 33.0737C29.3216 33.0737 29.3216 32.8143 29.3216 32.7819C29.3216 32.7494 29.5811 32.7819 29.646 33.0412C30.4246 34.2155 31.3275 35.3025 32.3391 36.2835C34.6594 38.3572 37.1323 40.2538 39.7369 41.9574C42.2353 43.7082 44.7661 45.4266 47.1347 47.3395C49.0681 48.9049 50.3702 51.1157 50.8012 53.5646C51.2554 55.9963 51.5474 58.4279 51.807 60.8596L52.0017 62.7401C52.036 62.781 52.0548 62.8326 52.0548 62.886C52.0548 62.9394 52.036 62.991 52.0017 63.0319C52.0017 63.0319 51.8394 63.0319 51.807 63.0319C49.4669 60.3841 46.7824 58.0615 43.8251 56.126C40.5805 53.7267 37.3358 51.4896 34.2859 48.9606C32.7303 47.7973 31.3906 46.3708 30.3274 44.7457C29.2098 42.9319 28.6147 40.8452 28.6077 38.7152Z" fill="white"/>
<path d="M27.245 49.6738C27.4196 49.8284 27.5439 50.0316 27.6019 50.2574C28.5159 52.9975 30.1391 55.4472 32.3066 57.3579C34.6569 59.3936 37.1997 61.1961 39.8991 62.74L40.256 62.9994C40.4183 62.9994 40.256 63.2264 40.256 63.2588H26.3689C25.5253 63.2588 25.5253 63.2588 25.6226 62.4482C26.1093 58.6872 26.596 54.9587 27.0503 51.1977C27.1152 50.7438 27.1801 50.2574 27.245 49.6738Z" fill="white"/>
<path d="M49.4708 41.9574C49.2437 41.9574 49.2437 41.698 49.1788 41.5683C47.63 38.0447 45.2869 34.9266 42.3326 32.4576C40.3844 30.7471 38.1986 29.3274 35.8433 28.2427C35.8433 28.2427 35.5188 28.2427 35.5188 27.9834C35.5188 27.724 35.7784 27.7564 35.9406 27.7564C37.8197 27.6105 39.7072 27.6105 41.5863 27.7564C43.4639 27.9118 45.322 28.2484 47.1347 28.7615C47.387 28.7932 47.6188 28.9164 47.7863 29.1077C47.9538 29.2989 48.0452 29.5449 48.0432 29.799C48.4001 33.0412 48.8219 36.2835 49.2437 39.2988C49.2437 40.012 49.4059 40.7253 49.5033 41.4386C49.555 41.6098 49.5435 41.794 49.4708 41.9574Z" fill="white"/>
<path d="M32.6635 25.5515V24.3842C32.6635 24.06 32.8906 23.9303 33.1502 23.8655C35.8216 23.273 38.5641 23.0656 41.2943 23.2495C42.1704 23.2495 43.014 23.4764 43.89 23.6385C44.7661 23.8006 44.6039 23.8655 44.6039 24.3842C44.656 24.6923 44.732 24.9958 44.831 25.2921C44.831 25.6811 44.831 25.7784 44.3767 25.6811C42.4559 25.2928 40.4918 25.162 38.5363 25.2921C36.7454 25.33 34.9627 25.5472 33.2151 25.9405C32.9231 25.9405 32.5986 26.0378 32.6635 25.5515Z" fill="white"/>
<path d="M39.1204 20.9803C39.9285 20.8816 40.7457 20.8816 41.5539 20.9803C42.1054 20.9803 42.2352 21.4018 42.1054 22.1475C41.9757 22.8932 41.6188 22.5042 41.3267 22.4717C39.5438 22.2659 37.7403 22.3205 35.9731 22.6338C35.5188 22.6338 35.389 22.6338 35.4215 22.1475C35.4215 21.1424 35.4215 21.0776 36.4922 20.9803C37.3664 20.8996 38.2462 20.8996 39.1204 20.9803Z" fill="white"/>
<path d="M38.0821 18.8078V17.5433C38.0821 17.1543 38.0821 16.9922 38.6337 16.9597C39.1853 16.9273 39.5746 16.9597 39.5746 17.8676C39.5746 18.7754 39.5746 19.3914 39.5746 20.1371C39.5746 20.8828 39.2177 20.6883 38.8284 20.6559C38.439 20.6235 38.0497 20.6559 38.0821 20.1371V18.8078Z" fill="white"/>
<path d="M2.21163 27.7348C1.98826 28.0299 1.80254 28.3516 1.65873 28.6925C1.60844 28.8732 1.60844 29.0642 1.65873 29.245C1.70779 29.3397 1.78506 29.4169 1.87989 29.466C2.02243 29.5197 2.17967 29.5197 2.32221 29.466C2.4625 29.3765 2.58704 29.2645 2.69081 29.1345L3.20684 28.5083C3.44276 28.1389 3.71437 27.7935 4.01776 27.477C4.25936 27.2189 4.56434 27.0284 4.9024 26.9245C5.29453 26.7776 5.72664 26.7776 6.11877 26.9245C6.54962 27.04 6.91931 27.317 7.15085 27.698C7.39931 28.0562 7.54 28.478 7.55631 28.9135C7.59433 29.4604 7.53186 30.0096 7.37201 30.5341C7.14979 31.088 6.8521 31.6085 6.48737 32.0811C6.08832 32.5181 5.61388 32.8799 5.0867 33.1492L3.94404 31.9706C4.38717 31.7182 4.78567 31.3947 5.12356 31.0129C5.43803 30.6813 5.68801 30.2941 5.86075 29.8711C5.91116 29.653 5.91116 29.4263 5.86075 29.2081C5.83756 29.1196 5.7912 29.0388 5.72642 28.974C5.66164 28.9093 5.58078 28.863 5.49216 28.8398C5.42635 28.797 5.34952 28.7742 5.271 28.7742C5.19248 28.7742 5.11565 28.797 5.04984 28.8398C4.8944 29.0215 4.78111 29.2353 4.7181 29.466L4.23892 30.0921C4.00206 30.4512 3.74357 30.7956 3.46486 31.1234C3.21741 31.3743 2.91437 31.5636 2.58023 31.6759C2.20099 31.8238 1.77995 31.8238 1.40071 31.6759C0.995222 31.5497 0.644435 31.2901 0.405493 30.9393C0.120065 30.5023 -0.0216865 29.9873 3.4143e-05 29.466C-0.0136397 28.9506 0.0740226 28.4375 0.258053 27.9558C0.431927 27.4734 0.667313 27.0153 0.958391 26.593C1.26359 26.2769 1.61088 26.0042 1.99047 25.7827L3.16998 26.9245C2.82357 27.1611 2.50243 27.4326 2.21163 27.7348Z" fill="white"/>
<path d="M4.05457 20.1472L7.37195 15.5063L8.62519 16.3535L6.4136 19.4842L7.37195 20.2577L9.36239 17.4216L10.6893 18.4161L8.69891 21.2522L9.84157 22.0257L12.09 18.8213L13.3064 19.7052L9.95215 24.2725L4.05457 20.1472Z" fill="white"/>
<path d="M17.6559 10.6816L18.946 9.68709L20.7152 11.9339C20.5494 12.4313 20.3136 12.9025 20.0149 13.3335C19.7147 13.7853 19.3409 14.1836 18.9091 14.5121C18.3862 14.9612 17.7476 15.2547 17.0661 15.3593C16.4192 15.4705 15.7539 15.3938 15.1494 15.1383C14.5236 14.8969 13.9756 14.4893 13.5644 13.9596C13.1609 13.4351 12.9063 12.8117 12.8272 12.1549C12.7598 11.4897 12.8612 10.8184 13.1221 10.2027C13.41 9.56338 13.8535 9.00623 14.4122 8.58212C14.8582 8.24567 15.3562 7.9844 15.8866 7.80864C16.3878 7.6569 16.9118 7.59456 17.4347 7.62447V9.31877C17.0822 9.24528 16.7183 9.24528 16.3658 9.31877C16.036 9.41342 15.7245 9.56283 15.4443 9.76076C15.1401 10.0069 14.8998 10.3228 14.7439 10.6816C14.6714 11.0339 14.6714 11.3973 14.7439 11.7497C14.812 12.118 14.9775 12.4613 15.2231 12.7442C15.4458 13.0564 15.7525 13.2991 16.1077 13.444C16.443 13.5537 16.8046 13.5537 17.1398 13.444C17.5025 13.4027 17.8468 13.2625 18.135 13.0388C18.4107 12.7892 18.6359 12.4892 18.7985 12.1549L17.6559 10.6816Z" fill="white"/>
<path d="M26.3917 3.97809C26.0387 3.90953 25.6758 3.90953 25.3228 3.97809C25.1385 4.04816 24.9741 4.16192 24.8436 4.30959C24.808 4.37118 24.7893 4.44104 24.7893 4.51216C24.7893 4.58328 24.808 4.65315 24.8436 4.71474C24.865 4.78844 24.9025 4.85644 24.9535 4.91379C25.0045 4.97113 25.0677 5.01638 25.1385 5.04623H25.6176H26.4286C26.8703 5.01345 27.3138 5.01345 27.7555 5.04623C28.1179 5.08853 28.4684 5.20113 28.7876 5.37773C29.1251 5.61458 29.3823 5.94866 29.5248 6.33537C29.668 6.75316 29.668 7.20671 29.5248 7.6245C29.3996 8.04074 29.1564 8.41178 28.8245 8.69264C28.4522 9.03636 28.013 9.29967 27.5344 9.46612C26.9736 9.70079 26.373 9.82583 25.7651 9.83445C25.1786 9.87757 24.5895 9.80241 24.0327 9.61345V7.956C24.5842 8.22292 25.1891 8.36144 25.8019 8.36115C26.2384 8.4632 26.6925 8.4632 27.1289 8.36115C27.3415 8.28722 27.5317 8.16047 27.6818 7.99283C27.7358 7.91769 27.7648 7.82751 27.7648 7.735C27.7648 7.64249 27.7358 7.55231 27.6818 7.47717C27.6245 7.33613 27.5204 7.21908 27.3869 7.14568H26.834H26.06H24.7699C24.4197 7.12637 24.0788 7.02546 23.7746 6.85102C23.4171 6.63586 23.1539 6.29391 23.0375 5.89338C22.8904 5.50154 22.8904 5.06975 23.0375 4.67791C23.1266 4.30189 23.318 3.95776 23.5903 3.68343C23.9408 3.25993 24.3816 2.92014 24.8804 2.68896C25.3635 2.4932 25.8727 2.36911 26.3917 2.32064C26.8802 2.24403 27.3776 2.24403 27.8661 2.32064V3.97809C27.3768 3.91276 26.881 3.91276 26.3917 3.97809Z" fill="white"/>
<path d="M39.44 7.10866L38.8503 5.85635L35.7541 6.11418L35.3486 7.36648H33.4319L35.9015 0H37.8551L41.5411 6.92449L39.44 7.10866ZM36.1964 4.64088H38.1868L36.8599 1.98895L36.1964 4.64088Z" fill="white"/>
<path d="M46.5909 0.368164L48.4339 0.736488L47.3281 6.22452L50.3138 6.85067L49.982 8.39763L45.1534 7.36632L46.5909 0.368164Z" fill="white"/>
<path d="M56.9117 3.27832L61.9615 5.85659L61.298 7.36672L57.9069 5.63559L57.2803 6.85106L60.3765 8.39803L59.6762 9.72399L56.6168 8.17703L55.9902 9.3925L59.6762 11.1605L58.9758 12.3023L53.8154 9.68716L56.9117 3.27832Z" fill="white"/>
<path d="M65.3526 17.6795L65.9792 15.5064L64.9471 14.7329L63.5833 16.2062L62.2195 14.7329L67.1587 9.53955L69.5177 11.7495C70.1336 12.2625 70.5401 12.9832 70.6604 13.7753C70.6943 14.121 70.6489 14.4699 70.5275 14.7954C70.4062 15.1209 70.2121 15.4145 69.9601 15.6537C69.6406 16.0267 69.2171 16.296 68.7437 16.4272C68.3108 16.5562 67.8496 16.5562 67.4167 16.4272L66.9007 19.1528L65.3526 17.6795ZM65.9792 13.4806L66.9744 14.4014C67.0854 14.5118 67.218 14.5982 67.3638 14.6552C67.5097 14.7122 67.6657 14.7387 67.8222 14.7329C67.9755 14.7311 68.1268 14.6974 68.2664 14.634C68.406 14.5706 68.5309 14.4788 68.6331 14.3646C68.8406 14.145 68.9588 13.8562 68.9648 13.5543C68.9166 13.2322 68.7448 12.9415 68.4857 12.744L67.4904 11.7863L65.9792 13.4806Z" fill="white"/>
<path d="M75.1573 18.1582L78.2904 23.4989L76.9266 24.2724L75.8576 22.3939L70.9552 25.2669L70.0338 23.6462L74.9361 20.7733L73.8303 18.9317L75.1573 18.1582Z" fill="white"/>
<path d="M82.087 35.138L76.6686 33.8489L74.457 34.4014L73.9778 32.5966L76.1525 32.0441L80.3177 28.3608L80.76 30.2025L78.1798 32.6334L81.6078 33.4805L82.087 35.138Z" fill="white"/>
<path d="M75.3416 36.8325H74.715C74.8927 38.225 74.9789 39.6277 74.973 41.0314C75.1247 45.6853 74.3384 50.3222 72.6608 54.6664C70.9833 59.0106 68.4487 62.9734 65.2077 66.3191C61.9668 69.6648 58.0857 72.3252 53.7952 74.1421C49.5047 75.959 44.8924 76.8953 40.2326 76.8953C35.5727 76.8953 30.9604 75.959 26.6699 74.1421C22.3794 72.3252 18.4983 69.6648 15.2574 66.3191C12.0165 62.9734 9.48187 59.0106 7.80429 54.6664C6.12671 50.3222 5.34041 45.6853 5.49213 41.0314C5.48622 39.6277 5.57241 38.225 5.75015 36.8325H5.08667C4.90893 38.225 4.82274 39.6277 4.82865 41.0314C4.82865 50.4092 8.55676 59.403 15.1928 66.0341C21.8289 72.6652 30.8293 76.3905 40.2141 76.3905C49.5989 76.3905 58.5994 72.6652 65.2354 66.0341C71.8715 59.403 75.5996 50.4092 75.5996 41.0314C75.6055 39.6277 75.5193 38.225 75.3416 36.8325Z" fill="white"/>
<path d="M79.0645 36.8325H77.7006C77.8989 38.223 77.9852 39.6271 77.9587 41.0314C77.9587 51.0344 73.982 60.6277 66.9036 67.7009C59.8251 74.7741 50.2246 78.7478 40.2142 78.7478C30.2037 78.7478 20.6032 74.7741 13.5248 67.7009C6.44629 60.6277 2.46965 51.0344 2.46965 41.0314C2.46146 39.6276 2.54766 38.2248 2.72767 36.8325H1.47443C1.29669 38.225 1.2105 39.6277 1.21641 41.0314C1.52812 51.164 5.77537 60.7773 13.0583 67.8345C20.3412 74.8918 30.0876 78.8385 40.2326 78.8385C50.3775 78.8385 60.1239 74.8918 67.4069 67.8345C74.6898 60.7773 78.937 51.164 79.2488 41.0314C79.2488 39.6318 79.175 38.2322 79.0645 36.8325Z" fill="white"/>
</g>
<defs>
<clipPath id="clip0_737_5412">
<rect width="82.087" height="80" fill="white"/>
</clipPath>
</defs>
</svg>
