<svg width="24" height="24" viewBox="0 0 24 24" fill="none" xmlns="http://www.w3.org/2000/svg">
<path d="M20.1415 6.015C20.1415 6.015 17.8323 4.20755 15.104 4L14.8592 4.49166C17.3255 5.09515 18.4559 5.95959 19.6388 7.0225C17.6006 5.98175 15.5886 5.0075 12.0825 5.0075C8.5764 5.0075 6.56342 5.98175 4.52625 7.0225C5.70805 5.95959 7.05407 4.99944 9.30583 4.49166L9.06 4C6.1987 4.27001 4.0225 6.015 4.0225 6.015C4.0225 6.015 1.4433 9.75484 1 17.0975C3.59935 20.0958 7.54875 20.12 7.54875 20.12L8.3749 19.0188C6.6912 18.4434 5.18963 17.433 4.0225 16.09C5.65364 17.3242 8.11497 18.6088 12.0825 18.6088C16.049 18.6088 18.5104 17.3242 20.1425 16.09C18.9754 17.433 17.4738 18.4434 15.7901 19.0188L16.6163 20.12C16.6163 20.12 20.5646 20.0958 23.165 17.0975C22.7217 9.75484 20.1425 6.015 20.1425 6.015H20.1415ZM8.80712 15.0825C7.83387 15.0825 7.04399 14.1798 7.04399 13.0675C7.04399 11.9542 7.83387 11.0525 8.80712 11.0525C9.78137 11.0525 10.5702 11.9542 10.5702 13.0675C10.5702 14.1798 9.78137 15.0825 8.80712 15.0825ZM15.3559 15.0825C14.3826 15.0825 13.5927 14.1798 13.5927 13.0675C13.5927 11.9542 14.3826 11.0525 15.3559 11.0525C16.3301 11.0525 17.119 11.9542 17.119 13.0675C17.119 14.1798 16.3301 15.0825 15.3559 15.0825Z" fill="#217960"/>
</svg>
