<svg width="24" height="24" viewBox="0 0 24 24" fill="none" xmlns="http://www.w3.org/2000/svg">
<path d="M19.12 3H4.612C4.18447 3 3.77445 3.16984 3.47214 3.47214C3.16984 3.77445 3 4.18447 3 4.612V19.12C3 19.5475 3.16984 19.9575 3.47214 20.2599C3.77445 20.5622 4.18447 20.732 4.612 20.732H12.672V13.478H10.254V11.06H12.672V9.76335C12.672 7.30505 13.8699 6.22501 15.9131 6.22501C16.8904 6.22501 17.4093 6.29755 17.6541 6.3308V8.64301H16.2607C15.3933 8.64301 15.09 9.10142 15.09 10.0283V11.061H17.6319L17.2874 13.479H15.09V20.733H19.12C19.5475 20.733 19.9575 20.5632 20.2599 20.2609C20.5622 19.9586 20.732 19.5485 20.732 19.121V4.61301C20.732 4.18548 20.5622 3.77546 20.2599 3.47315C19.9575 3.17084 19.5475 3.00101 19.12 3.00101V3Z" fill="#217960"/>
</svg>
