<svg width="24" height="24" viewBox="0 0 24 24" fill="none" xmlns="http://www.w3.org/2000/svg">
<path d="M3.9016 2C2.22512 2 1.00605 3.00549 1.00605 4.38878C1.00605 5.77712 2.25434 6.82693 3.90261 6.82693C5.5811 6.82693 6.80018 5.8013 6.80018 4.36057C6.7226 2.97224 5.5277 2 3.90261 2H3.9016ZM1.4836 7.79917C1.35542 7.79944 1.23257 7.85047 1.14194 7.94111C1.0513 8.03174 1.00027 8.15459 1 8.28277V22.3072C1 22.5731 1.21762 22.7908 1.4836 22.7908H6.3196C6.58558 22.7908 6.8032 22.5731 6.8032 22.3072V8.28277C6.80293 8.15459 6.7519 8.03174 6.66126 7.94111C6.57063 7.85047 6.44778 7.79944 6.3196 7.79917H1.4836ZM8.7376 7.79917C8.60942 7.79944 8.48657 7.85047 8.39594 7.94111C8.3053 8.03174 8.25427 8.15459 8.254 8.28277V22.3072C8.254 22.5731 8.47162 22.7908 8.7376 22.7908H13.09C13.2183 22.7908 13.3413 22.7398 13.432 22.6491C13.5226 22.5584 13.5736 22.4354 13.5736 22.3072V14.8114C13.5736 13.6648 14.4542 12.7309 15.5765 12.6442C15.6339 12.6342 15.6924 12.6342 15.7498 12.6342C15.8082 12.6342 15.8657 12.6342 15.9241 12.6442C16.4693 12.6866 16.9784 12.9333 17.3496 13.3349C17.7208 13.7366 17.9266 14.2635 17.926 14.8104V22.3062C17.926 22.5731 18.1426 22.7898 18.4096 22.7898H22.762C23.028 22.7898 23.2456 22.5731 23.2456 22.3062V14.085C23.2456 10.9567 21.5671 7.79816 17.8252 7.79816C16.4749 7.80111 15.1587 8.22204 14.0572 9.00313V8.28277C14.0569 8.15459 14.0059 8.03174 13.9153 7.94111C13.8246 7.85047 13.7018 7.79944 13.5736 7.79917H8.7376V7.79917Z" fill="#217960"/>
</svg>
