<svg width="24" height="24" viewBox="0 0 24 24" fill="none" xmlns="http://www.w3.org/2000/svg">
<path d="M13.4603 2C12.4907 2 11.356 2.76128 11.1851 6.1616C11.3291 6.15872 11.4712 6.1472 11.6171 6.1472C11.7794 6.1472 11.9464 6.1568 12.1067 6.1616C12.2162 4.11872 12.7019 2.9216 13.4603 2.9216C13.7839 2.9216 13.9682 3.09824 14.3099 3.4688C14.7093 3.90272 15.2315 4.4672 16.2539 4.6784C16.2361 4.55437 16.2265 4.4293 16.2251 4.304C16.2251 4.11008 16.2443 3.92672 16.2827 3.7424C15.6491 3.5696 15.3141 3.2048 14.9867 2.8496C14.6219 2.45408 14.2015 2 13.4603 2V2ZM18.9899 2.4608C17.9723 2.4608 17.1467 3.28928 17.1467 4.304C17.1467 5.31968 17.9723 6.1472 18.9899 6.1472C20.0075 6.1472 20.8331 5.31968 20.8331 4.304C20.8331 3.28928 20.0075 2.4608 18.9899 2.4608ZM11.6171 7.0688C6.0261 7.0688 1.47954 9.91712 1.47954 13.9808C1.47954 18.0454 6.0261 21.3536 11.6171 21.3536C17.2082 21.3536 21.7547 18.0454 21.7547 13.9808C21.7547 9.91712 17.2082 7.0688 11.6171 7.0688V7.0688ZM3.55314 7.5008C2.88018 7.5008 2.24082 7.77632 1.75314 8.264C1.37824 8.63088 1.12793 9.10617 1.03751 9.62286C0.947088 10.1396 1.02111 10.6716 1.24914 11.144C1.94514 9.79616 3.14418 8.64608 4.69074 7.7888C4.33938 7.6112 3.95154 7.5008 3.55314 7.5008V7.5008ZM19.6811 7.5008C19.2827 7.5008 18.8939 7.6112 18.5435 7.7888C20.0891 8.64608 21.2891 9.79616 21.9851 11.144C22.2132 10.6716 22.2872 10.1396 22.1968 9.62286C22.1063 9.10617 21.856 8.63088 21.4811 8.264C21.2464 8.02424 20.9664 7.83335 20.6575 7.70236C20.3485 7.57137 20.0167 7.50286 19.6811 7.5008V7.5008ZM7.93074 11.216C8.2975 11.216 8.64924 11.3617 8.90858 11.621C9.16792 11.8804 9.31362 12.2321 9.31362 12.5989C9.31362 12.9656 9.16792 13.3174 8.90858 13.5767C8.64924 13.8361 8.2975 13.9818 7.93074 13.9818C7.5641 13.9818 7.21248 13.8361 6.95323 13.5769C6.69398 13.3176 6.54834 12.966 6.54834 12.5994C6.54834 12.2327 6.69398 11.8811 6.95323 11.6219C7.21248 11.3626 7.5641 11.217 7.93074 11.217V11.216ZM15.3035 11.216C15.6703 11.216 16.022 11.3617 16.2814 11.621C16.5407 11.8804 16.6864 12.2321 16.6864 12.5989C16.6864 12.9656 16.5407 13.3174 16.2814 13.5767C16.022 13.8361 15.6703 13.9818 15.3035 13.9818C14.9369 13.9818 14.5853 13.8361 14.326 13.5769C14.0668 13.3176 13.9211 12.966 13.9211 12.5994C13.9211 12.2327 14.0668 11.8811 14.326 11.6219C14.5853 11.3626 14.9369 11.217 15.3035 11.217V11.216ZM7.49874 16.2848C7.61394 16.305 7.72722 16.3693 7.80114 16.472C7.84914 16.5411 8.9301 17.984 11.6171 17.984C14.3407 17.984 15.4226 16.5008 15.4331 16.4864C15.5043 16.3859 15.6122 16.3174 15.7335 16.2958C15.8548 16.2743 15.9797 16.3014 16.0811 16.3712C16.1297 16.4059 16.1709 16.4499 16.2024 16.5007C16.2338 16.5514 16.2548 16.6079 16.2642 16.6669C16.2736 16.7259 16.2711 16.7861 16.257 16.8441C16.2429 16.9021 16.2174 16.9567 16.1819 17.0048C16.1282 17.0826 14.8139 18.9056 11.6171 18.9056C8.41842 18.9056 7.1061 17.0826 7.05234 17.0048C7.01666 16.9568 6.99093 16.9022 6.97667 16.8442C6.9624 16.7861 6.95989 16.7258 6.96929 16.6668C6.97868 16.6077 6.99978 16.5512 7.03136 16.5004C7.06293 16.4497 7.10434 16.4057 7.15314 16.3712C7.25256 16.2982 7.37667 16.2672 7.49874 16.2848V16.2848Z" fill="#217960"/>
</svg>
