<svg width="26" height="26" viewBox="0 0 26 26" fill="none" xmlns="http://www.w3.org/2000/svg">
<path d="M23.151 5C22.3652 5.46647 20.7874 6.1022 19.8615 6.28557C19.8343 6.29262 19.8111 6.30169 19.786 6.30874C19.1496 5.6811 18.342 5.25555 17.4645 5.08557C16.587 4.91559 15.6788 5.00877 14.8542 5.35339C14.0295 5.69801 13.3251 6.27871 12.8294 7.02249C12.3338 7.76627 12.0691 8.63996 12.0685 9.53375C12.0685 9.66573 12.0574 9.90854 12.0685 10.0375C8.68935 10.0375 6.11821 8.26833 4.27449 6.0075C4.07399 6.51125 3.98634 7.30717 3.98634 8.05474C3.98634 9.46625 5.08955 10.8526 6.80734 11.712C6.49099 11.7936 6.14239 11.853 5.77969 11.853C5.13357 11.8637 4.50494 11.6429 4.0075 11.2304V11.2818C4.0075 13.2544 6.10108 14.5974 7.96294 14.9712C7.58513 15.1939 6.82447 15.216 6.45169 15.216C6.18974 15.216 5.26284 15.0962 5.015 15.0498C5.53285 16.6668 7.40076 17.5756 9.18101 17.6089C7.78865 18.7 6.82346 19.105 3.97224 19.105H3C4.80141 20.2596 7.09549 21.121 9.3946 21.121C16.8803 21.121 21.136 15.4155 21.136 10.0385C21.136 9.95086 21.133 9.7695 21.13 9.58715C21.13 9.56901 21.136 9.55188 21.136 9.53375C21.136 9.50655 21.1269 9.48035 21.1269 9.45315C21.1249 9.34264 21.1219 9.23214 21.1179 9.12168C21.9153 8.54612 22.6037 7.83309 23.151 7.01601C22.4082 7.34483 21.6203 7.56048 20.8136 7.65577C21.6539 7.15202 22.8467 5.95108 23.151 5Z" fill="#217960"/>
</svg>
