<svg width="24" height="24" viewBox="0 0 24 24" fill="none" xmlns="http://www.w3.org/2000/svg">
<path d="M12.478 3C9.10388 3 4.72529 3.8463 4.72529 3.8463L4.7142 3.85839C3.95846 3.97776 3.27004 4.36266 2.77257 4.94396C2.2751 5.52527 2.00118 6.26489 2 7.03V16.704C2.0014 17.4709 2.27614 18.2122 2.77489 18.7948C3.27364 19.3774 3.96373 19.7631 4.72126 19.8827L4.72529 19.8867C4.72529 19.8867 9.10388 20.733 12.478 20.733C15.8521 20.733 20.2307 19.8867 20.2307 19.8867L20.2327 19.8857C20.9911 19.7665 21.6821 19.3805 22.1813 18.7972C22.6805 18.214 22.9552 17.4717 22.956 16.704V7.03C22.9548 6.26277 22.68 5.52112 22.1811 4.93831C21.6821 4.35549 20.9916 3.96973 20.2337 3.85033L20.2307 3.84529C20.2307 3.84529 15.8521 3 12.478 3V3ZM10.06 8.1584L16.508 11.866L10.06 15.5756V8.15739V8.1584Z" fill="#217960"/>
</svg>
